<?xml version="1.0" encoding="UTF-8" standalone="no"?>
<!DOCTYPE svg PUBLIC "-//W3C//DTD SVG 1.1//EN"
 "http://www.w3.org/Graphics/SVG/1.1/DTD/svg11.dtd">
<!-- Generated by graphviz version 2.44.0 (20200408.0750)
 -->
<!-- Pages: 1 -->
<svg width="588pt" height="404pt"
 viewBox="0.00 0.00 587.78 404.00" xmlns="http://www.w3.org/2000/svg" xmlns:xlink="http://www.w3.org/1999/xlink">
<g id="graph0" class="graph" transform="scale(1 1) rotate(0) translate(4 400)">
<polygon fill="white" stroke="transparent" points="-4,4 -4,-400 583.78,-400 583.78,4 -4,4"/>
<!-- [root] aws_eip.lb -->
<g id="node1" class="node">
<title>[root] aws_eip.lb</title>
<polygon fill="none" stroke="black" points="326.63,-180 251.63,-180 251.63,-144 326.63,-144 326.63,-180"/>
<text text-anchor="middle" x="289.13" y="-158.3" font-family="Times,serif" font-size="14.00">aws_eip.lb</text>
</g>
<!-- [root] provider.aws -->
<g id="node5" class="node">
<title>[root] provider.aws</title>
<polygon fill="none" stroke="black" points="289.13,-108 210.04,-90 289.13,-72 368.23,-90 289.13,-108"/>
<text text-anchor="middle" x="289.13" y="-86.3" font-family="Times,serif" font-size="14.00">provider.aws</text>
</g>
<!-- [root] aws_eip.lb&#45;&gt;[root] provider.aws -->
<g id="edge1" class="edge">
<title>[root] aws_eip.lb&#45;&gt;[root] provider.aws</title>
<path fill="none" stroke="black" d="M289.13,-143.7C289.13,-135.98 289.13,-126.71 289.13,-118.11"/>
<polygon fill="black" stroke="black" points="292.63,-118.1 289.13,-108.1 285.63,-118.1 292.63,-118.1"/>
</g>
<!-- [root] aws_eip_association.eip_assoc -->
<g id="node2" class="node">
<title>[root] aws_eip_association.eip_assoc</title>
<polygon fill="none" stroke="black" points="517.13,-252 333.13,-252 333.13,-216 517.13,-216 517.13,-252"/>
<text text-anchor="middle" x="425.13" y="-230.3" font-family="Times,serif" font-size="14.00">aws_eip_association.eip_assoc</text>
</g>
<!-- [root] aws_eip_association.eip_assoc&#45;&gt;[root] aws_eip.lb -->
<g id="edge2" class="edge">
<title>[root] aws_eip_association.eip_assoc&#45;&gt;[root] aws_eip.lb</title>
<path fill="none" stroke="black" d="M391.87,-215.88C373.67,-206.51 350.94,-194.81 331.49,-184.8"/>
<polygon fill="black" stroke="black" points="333.02,-181.65 322.53,-180.19 329.82,-187.88 333.02,-181.65"/>
</g>
<!-- [root] aws_instance.myec2 -->
<g id="node3" class="node">
<title>[root] aws_instance.myec2</title>
<polygon fill="none" stroke="black" points="489.63,-180 360.63,-180 360.63,-144 489.63,-144 489.63,-180"/>
<text text-anchor="middle" x="425.13" y="-158.3" font-family="Times,serif" font-size="14.00">aws_instance.myec2</text>
</g>
<!-- [root] aws_eip_association.eip_assoc&#45;&gt;[root] aws_instance.myec2 -->
<g id="edge3" class="edge">
<title>[root] aws_eip_association.eip_assoc&#45;&gt;[root] aws_instance.myec2</title>
<path fill="none" stroke="black" d="M425.13,-215.7C425.13,-207.98 425.13,-198.71 425.13,-190.11"/>
<polygon fill="black" stroke="black" points="428.63,-190.1 425.13,-180.1 421.63,-190.1 428.63,-190.1"/>
</g>
<!-- [root] aws_instance.myec2&#45;&gt;[root] provider.aws -->
<g id="edge4" class="edge">
<title>[root] aws_instance.myec2&#45;&gt;[root] provider.aws</title>
<path fill="none" stroke="black" d="M391.87,-143.88C370.36,-132.81 342.51,-118.47 321.23,-107.52"/>
<polygon fill="black" stroke="black" points="322.76,-104.37 312.26,-102.9 319.55,-110.59 322.76,-104.37"/>
</g>
<!-- [root] var.instance_type -->
<g id="node7" class="node">
<title>[root] var.instance_type</title>
<polygon fill="none" stroke="black" points="491.63,-108 386.63,-108 386.63,-72 497.63,-72 497.63,-102 491.63,-108"/>
<polyline fill="none" stroke="black" points="491.63,-108 491.63,-102 "/>
<polyline fill="none" stroke="black" points="497.63,-102 491.63,-102 "/>
<text text-anchor="middle" x="442.13" y="-86.3" font-family="Times,serif" font-size="14.00">var.instance_type</text>
</g>
<!-- [root] aws_instance.myec2&#45;&gt;[root] var.instance_type -->
<g id="edge5" class="edge">
<title>[root] aws_instance.myec2&#45;&gt;[root] var.instance_type</title>
<path fill="none" stroke="black" d="M429.34,-143.7C431.23,-135.9 433.51,-126.51 435.62,-117.83"/>
<polygon fill="black" stroke="black" points="439.02,-118.65 437.98,-108.1 432.22,-117 439.02,-118.65"/>
</g>
<!-- [root] aws_security_group.allow_tls -->
<g id="node4" class="node">
<title>[root] aws_security_group.allow_tls</title>
<polygon fill="none" stroke="black" points="314.63,-252 135.63,-252 135.63,-216 314.63,-216 314.63,-252"/>
<text text-anchor="middle" x="225.13" y="-230.3" font-family="Times,serif" font-size="14.00">aws_security_group.allow_tls</text>
</g>
<!-- [root] aws_security_group.allow_tls&#45;&gt;[root] aws_eip.lb -->
<g id="edge6" class="edge">
<title>[root] aws_security_group.allow_tls&#45;&gt;[root] aws_eip.lb</title>
<path fill="none" stroke="black" d="M240.95,-215.7C248.7,-207.22 258.17,-196.86 266.66,-187.58"/>
<polygon fill="black" stroke="black" points="269.33,-189.85 273.5,-180.1 264.17,-185.12 269.33,-189.85"/>
</g>
<!-- [root] var.aws -->
<g id="node6" class="node">
<title>[root] var.aws</title>
<polygon fill="none" stroke="black" points="312.13,-36 260.13,-36 260.13,0 318.13,0 318.13,-30 312.13,-36"/>
<polyline fill="none" stroke="black" points="312.13,-36 312.13,-30 "/>
<polyline fill="none" stroke="black" points="318.13,-30 312.13,-30 "/>
<text text-anchor="middle" x="289.13" y="-14.3" font-family="Times,serif" font-size="14.00">var.aws</text>
</g>
<!-- [root] provider.aws&#45;&gt;[root] var.aws -->
<g id="edge11" class="edge">
<title>[root] provider.aws&#45;&gt;[root] var.aws</title>
<path fill="none" stroke="black" d="M289.13,-71.7C289.13,-63.98 289.13,-54.71 289.13,-46.11"/>
<polygon fill="black" stroke="black" points="292.63,-46.1 289.13,-36.1 285.63,-46.1 292.63,-46.1"/>
</g>
<!-- [root] meta.count&#45;boundary (EachMode fixup) -->
<g id="node8" class="node">
<title>[root] meta.count&#45;boundary (EachMode fixup)</title>
<ellipse fill="none" stroke="black" cx="176.13" cy="-306" rx="176.27" ry="18"/>
<text text-anchor="middle" x="176.13" y="-302.3" font-family="Times,serif" font-size="14.00">[root] meta.count&#45;boundary (EachMode fixup)</text>
</g>
<!-- [root] meta.count&#45;boundary (EachMode fixup)&#45;&gt;[root] aws_eip_association.eip_assoc -->
<g id="edge7" class="edge">
<title>[root] meta.count&#45;boundary (EachMode fixup)&#45;&gt;[root] aws_eip_association.eip_assoc</title>
<path fill="none" stroke="black" d="M233.26,-288.94C269.24,-278.83 315.97,-265.69 354.3,-254.91"/>
<polygon fill="black" stroke="black" points="355.68,-258.16 364.36,-252.08 353.79,-251.42 355.68,-258.16"/>
</g>
<!-- [root] meta.count&#45;boundary (EachMode fixup)&#45;&gt;[root] aws_security_group.allow_tls -->
<g id="edge8" class="edge">
<title>[root] meta.count&#45;boundary (EachMode fixup)&#45;&gt;[root] aws_security_group.allow_tls</title>
<path fill="none" stroke="black" d="M188.25,-287.7C194,-279.47 201,-269.48 207.34,-260.42"/>
<polygon fill="black" stroke="black" points="210.29,-262.3 213.16,-252.1 204.56,-258.29 210.29,-262.3"/>
</g>
<!-- [root] provider.aws (close) -->
<g id="node9" class="node">
<title>[root] provider.aws (close)</title>
<ellipse fill="none" stroke="black" cx="475.13" cy="-306" rx="104.78" ry="18"/>
<text text-anchor="middle" x="475.13" y="-302.3" font-family="Times,serif" font-size="14.00">[root] provider.aws (close)</text>
</g>
<!-- [root] provider.aws (close)&#45;&gt;[root] aws_eip_association.eip_assoc -->
<g id="edge9" class="edge">
<title>[root] provider.aws (close)&#45;&gt;[root] aws_eip_association.eip_assoc</title>
<path fill="none" stroke="black" d="M463.03,-288.05C457.16,-279.84 449.99,-269.79 443.46,-260.66"/>
<polygon fill="black" stroke="black" points="446.13,-258.38 437.47,-252.28 440.44,-262.45 446.13,-258.38"/>
</g>
<!-- [root] provider.aws (close)&#45;&gt;[root] aws_security_group.allow_tls -->
<g id="edge10" class="edge">
<title>[root] provider.aws (close)&#45;&gt;[root] aws_security_group.allow_tls</title>
<path fill="none" stroke="black" d="M422.73,-290.33C385.95,-280.03 336.36,-266.14 296.05,-254.86"/>
<polygon fill="black" stroke="black" points="296.86,-251.45 286.28,-252.12 294.97,-258.19 296.86,-251.45"/>
</g>
<!-- [root] root -->
<g id="node10" class="node">
<title>[root] root</title>
<ellipse fill="none" stroke="black" cx="325.13" cy="-378" rx="47.39" ry="18"/>
<text text-anchor="middle" x="325.13" y="-374.3" font-family="Times,serif" font-size="14.00">[root] root</text>
</g>
<!-- [root] root&#45;&gt;[root] meta.count&#45;boundary (EachMode fixup) -->
<g id="edge12" class="edge">
<title>[root] root&#45;&gt;[root] meta.count&#45;boundary (EachMode fixup)</title>
<path fill="none" stroke="black" d="M296.41,-363.5C274.96,-353.43 245.25,-339.47 220.73,-327.95"/>
<polygon fill="black" stroke="black" points="222.15,-324.75 211.61,-323.67 219.17,-331.09 222.15,-324.75"/>
</g>
<!-- [root] root&#45;&gt;[root] provider.aws (close) -->
<g id="edge13" class="edge">
<title>[root] root&#45;&gt;[root] provider.aws (close)</title>
<path fill="none" stroke="black" d="M354.06,-363.5C376.02,-353.25 406.6,-338.98 431.53,-327.35"/>
<polygon fill="black" stroke="black" points="433.2,-330.43 440.78,-323.03 430.24,-324.09 433.2,-330.43"/>
</g>
</g>
</svg>
